# xmcd
#
# Track frame offsets: 
#        150
#        17450
#        36720
#        53817
#        72402
#        92610
#        115630
#        132382
#        151302
#        171970
#        192482
#        211807
#        234797
#        255967
#        275645
#        298075
#
# Disc length: 4244 seconds
#
# Revision: 26
# Processed by: cddbd v1.5.2PL0 Copyright (c) Steve Scherf et al.
# Submitted via: ExactAudioCopy v1.1
#
DISCID=e2109210
DTITLE=プリンセス プリンセス - SINGLES 1987-1992
DYEAR=1992
DGENRE=Rock
TTITLE0=THE PRIVATE FANFARE
TTITLE1=19 GROWING UP -ode to my buddy-
TTITLE2=世界で一番熱い夏 ('92 mix)
TTITLE3=OH YEAH!
TTITLE4=KISS
TTITLE5=ジュリアン
TTITLE6=恋はバランス ('92 mix)
TTITLE7=GO AWAY BOY
TTITLE8=GET CRAZY!
TTITLE9=M
TTITLE10=MY WILL ('92 mix)
TTITLE11=ジャングル プリンセス
TTITLE12=SEVEN YEARS AFTER
TTITLE13=パイロットになりたくて
TTITLE14=DIAMONDS
TTITLE15=晴れた日に
EXTD=YEAR: 1992
EXTT0=
EXTT1=
EXTT2=
EXTT3=
EXTT4=
EXTT5=
EXTT6=
EXTT7=
EXTT8=
EXTT9=
EXTT10=
EXTT11=
EXTT12=
EXTT13=
EXTT14=
EXTT15=
PLAYORDER=
